<svg xmlns="http://www.w3.org/2000/svg" width="38.028" height="37.914" viewBox="0 0 38.028 37.914"><g id="icon_candidaturas" transform="translate(-5207.041 -4273.25)"><path id="Caminho_581" data-name="Caminho 581" d="M425.5,302.763a5.864,5.864,0,1,0-5.92-5.92A6.028,6.028,0,0,0,425.5,302.763Zm0-9.564a3.757,3.757,0,1,1,0,7.514,3.757,3.757,0,1,1,0-7.514Z" transform="translate(4800.441 3989.501)" fill="#ec5865"/><path id="Caminho_582" data-name="Caminho 582" d="M401.991,397.94a9.789,9.789,0,0,0-9.564,7.742l2.049.456a7.555,7.555,0,0,1,14.8,0l2.049-.456a9.342,9.342,0,0,0-9.336-7.742Z" transform="translate(4823.95 3896.942)" fill="#ec5865"/><path id="Caminho_583" data-name="Caminho 583" d="M341.753,236.725a17.9,17.9,0,0,0-8.084,1.821,18.984,18.984,0,1,0,27.212,17.078,19.2,19.2,0,0,0-19.127-18.9Zm0,35.864a16.819,16.819,0,0,1-7.286-31.993A17.341,17.341,0,0,1,341.639,239a16.794,16.794,0,0,1,.113,33.587Z" transform="translate(4884.188 4036.525)" fill="#ec5865"/></g></svg>