<svg xmlns="http://www.w3.org/2000/svg" width="24.59" height="39.489" viewBox="0 0 24.59 39.489"><g id="icon_denuncias" transform="translate(-25.715 -11)"><path id="Caminho_30" data-name="Caminho 30" d="M45.948,61.776h-.834a1.691,1.691,0,0,0-1.689,1.689V64.3a1.691,1.691,0,0,0,1.689,1.69h.834a1.692,1.692,0,0,0,1.69-1.69v-.834A1.691,1.691,0,0,0,45.948,61.776Zm.171,2.523a.171.171,0,0,1-.171.171h-.834a.171.171,0,0,1-.171-.171v-.834a.171.171,0,0,1,.171-.171h.834a.171.171,0,0,1,.171.171Z" transform="translate(-8.744 -25.07)" fill="#ec5865"/><path id="Caminho_31" data-name="Caminho 31" d="M43.835,17.267h3.048a.759.759,0,1,0,0-1.519H43.835a.759.759,0,1,0,0,1.519Z" transform="translate(-8.571 -2.344)" fill="#ec5865"/><path id="Caminho_32" data-name="Caminho 32" d="M46.681,27.677V14.363A3.367,3.367,0,0,0,43.318,11H30.256a3.367,3.367,0,0,0-3.363,3.363v5.7a2.4,2.4,0,0,0-.42.341,2.591,2.591,0,0,0,0,3.664h0a2.591,2.591,0,0,0,0,3.664h0a2.591,2.591,0,0,0,0,3.664h0a2.588,2.588,0,0,0,.42,4v5.273a3.37,3.37,0,0,0,3.363,3.369h.918c.771,2.544,2.347,2.946,3.259,2.946H35.3l.9,2.967a.759.759,0,0,0,.726.538H48.714a.76.76,0,0,0,.722-1l-1.221-3.735A7.807,7.807,0,0,0,50.3,40.427c0-5.993-.9-7.672-3.077-11.728C47.054,28.376,46.871,28.034,46.681,27.677ZM31.73,33.228a1.064,1.064,0,0,1-.309.754,1.086,1.086,0,0,1-.763.318H28.306a1.083,1.083,0,0,1-.382-.068,1.076,1.076,0,0,1-.369-1.772,1.048,1.048,0,0,1,.369-.238,1.073,1.073,0,0,1,.383-.068h2.351A1.074,1.074,0,0,1,31.73,33.228Zm0-3.665a1.064,1.064,0,0,1-.309.754,1.086,1.086,0,0,1-.763.318H28.306a1.083,1.083,0,0,1-.382-.068,1.077,1.077,0,0,1-.37-1.772,1.048,1.048,0,0,1,.369-.238,1.074,1.074,0,0,1,.383-.068h2.351A1.074,1.074,0,0,1,31.73,29.563Zm0-3.665a1.064,1.064,0,0,1-.309.754,1.086,1.086,0,0,1-.763.318H28.306a1.083,1.083,0,0,1-.382-.068,1.077,1.077,0,0,1-.37-1.772,1.048,1.048,0,0,1,.369-.238,1.073,1.073,0,0,1,.383-.068h2.351A1.074,1.074,0,0,1,31.73,25.9Zm-.309-2.91a1.088,1.088,0,0,1-.764.318H28.306a1.074,1.074,0,0,1-.751-1.84,1.048,1.048,0,0,1,.369-.238,1.074,1.074,0,0,1,.383-.068h2.351a1.074,1.074,0,0,1,.764,1.827Zm-3.009,17.68V35.819h2.246A2.59,2.59,0,0,0,32.49,31.4h0a2.59,2.59,0,0,0,0-3.664h0a2.595,2.595,0,0,0,.706-2.354c0-.016-.011-.03-.014-.045a2.579,2.579,0,0,0-.137-.441c0-.005-.006-.01-.008-.015a2.6,2.6,0,0,0-.547-.808h0a2.592,2.592,0,0,0-1.833-4.424H28.412V14.363a1.847,1.847,0,0,1,1.845-1.845H43.318a1.846,1.846,0,0,1,1.844,1.845v12.1l-.025-.006c-.091-.03-.184-.05-.277-.071-.047-.01-.093-.025-.14-.033a2.959,2.959,0,0,0-.3-.03c-.045,0-.09-.011-.135-.012a3.006,3.006,0,0,0-.319.015c-.04,0-.08,0-.12.007a3.087,3.087,0,0,0-.439.087,2.96,2.96,0,0,0-2.153,2.36c0,.012-.006.023-.008.034l-.1.542a3.1,3.1,0,0,0,.254,1.782l3.755,7.851v1.69a1.849,1.849,0,0,1-1.693,1.835l-.063.007a.65.65,0,0,1-.088,0H30.256A1.85,1.85,0,0,1,28.412,40.668Zm9.076,8.3-.6-1.986h7.46a7.566,7.566,0,0,0,.817-.049c.078-.008.154-.02.231-.031q.3-.043.6-.11c.068-.016.137-.029.2-.046a6.44,6.44,0,0,0,.679-.216l.8,2.438Zm9.455-4.151a5.177,5.177,0,0,1-2.6.646H34.434c-.725,0-1.28-.479-1.656-1.427h10.54a2.106,2.106,0,0,0,.3-.017c.072-.006.142-.018.212-.029.035-.005.071-.008.105-.014l.035-.008a3.384,3.384,0,0,0,2.649-2.66,3.321,3.321,0,0,0,.061-.635V38.812a.76.76,0,0,0-.074-.328l-3.828-8a1.551,1.551,0,0,1-.128-.881l.094-.53v-.008a1.444,1.444,0,0,1,1.066-1.182,1.593,1.593,0,0,1,.21-.043c.027,0,.054,0,.082-.006.042,0,.085-.008.127-.008s.061,0,.091.006.075,0,.112.009.061.013.092.019.071.014.105.025.059.021.089.032.067.024.1.039.056.029.084.044.064.034.094.054.052.037.078.057.059.044.087.068.048.045.072.069.041.041.061.063c.207.39.4.757.591,1.1,2.108,3.929,2.9,5.4,2.9,11.01C48.786,41.972,47.983,44.226,46.942,44.819Z" fill="#ec5865"/></g></svg>