<svg xmlns="http://www.w3.org/2000/svg" width="34.433" height="34.427" viewBox="0 0 34.433 34.427"><path id="icon_imprensa" d="M153.566,77.864l-8.132-8.132,2.881-2.881a1.009,1.009,0,0,0,0-1.43l-5.8-5.8a1.01,1.01,0,0,0-1.43,0l-1.552,1.556h0a9.675,9.675,0,1,0-8.413,8.413l-1.552,1.552a1.014,1.014,0,0,0,0,1.43l5.8,5.8a1.009,1.009,0,0,0,1.43,0l2.881-2.881,8.132,8.132a4.072,4.072,0,0,0,5.759-5.754ZM129.938,67.638a7.65,7.65,0,0,1,0-15.3h.1l-3.883,3.87a1.011,1.011,0,0,0,1.43,1.43l4.88-4.871a7.609,7.609,0,0,1,2.1,1.144l-7.656,7.656A1.011,1.011,0,0,0,128.34,63L136,55.341h0a7.638,7.638,0,0,1,1.144,2.1l-4.859,4.892a1.02,1.02,0,1,0,1.443,1.443l3.87-3.87v.1h0a7.623,7.623,0,0,1-1.847,4.951l-.841.841a7.619,7.619,0,0,1-4.968,1.838Zm6.142,8.585-4.371-4.371,4.568-4.564a9.844,9.844,0,0,0,.955-.955l4.568-4.568,4.371,4.371-10.1,10.1Zm16.057,5.969a2.048,2.048,0,0,1-2.9,0l-8.132-8.132,2.9-2.9,8.127,8.132a2.044,2.044,0,0,1,0,2.9Z" transform="translate(-120.251 -50.313)" fill="#6b4f9d" fill-rule="evenodd"/></svg>