<svg xmlns="http://www.w3.org/2000/svg" width="35.765" height="35.766" viewBox="0 0 35.765 35.766"><g id="icon_je" transform="translate(-597 -768)"><g id="Subtração_3" data-name="Subtração 3" transform="translate(605 770)" fill="none"><path d="M4.234,33H0V25.76a16.264,16.264,0,0,0,5.062.8c8.607,0,15.609-6.68,15.609-14.89A14.579,14.579,0,0,0,14.757,0H27V20.962L4.234,33Z" stroke="none"/><path d="M 3.861397504806519 31.5 L 25.5 20.05841827392578 L 25.5 1.5 L 18.48680686950684 1.5 C 20.85992050170898 4.363657474517822 22.17173957824707 7.918831348419189 22.17173957824707 11.67066955566406 C 22.17173957824707 20.70825958251953 14.49650001525879 28.06086921691895 5.062359809875488 28.06086921691895 C 3.857248783111572 28.06086921691895 2.665297269821167 27.9415283203125 1.5 27.70499038696289 L 1.5 31.5 L 3.861397504806519 31.5 M 4.233550071716309 33 L -1.77635683940025e-15 33 L -1.77635683940025e-15 25.76030921936035 C 1.624600052833557 26.29138946533203 3.327600002288818 26.56086921691895 5.062359809875488 26.56086921691895 C 13.66936016082764 26.56086921691895 20.67173957824707 19.88114929199219 20.67173957824707 11.67066955566406 C 20.67173957824707 7.098659992218018 18.51601028442383 2.844880104064941 14.75741958618164 0 L 27 0 L 27 20.96206092834473 L 4.233550071716309 33 Z" stroke="none" fill="#ec5865"/></g><g id="Interseção_1" data-name="Interseção 1" transform="translate(610.833 792.015)" fill="none"><path d="M0,11.751,21.933,0V11.751Z" stroke="none"/><path d="M 20.43272018432617 10.25106048583984 L 20.43272018432617 2.505401372909546 L 5.975866317749023 10.25106048583984 L 20.43272018432617 10.25106048583984 M 21.93272018432617 11.75106048583984 L 1.045837393576221e-06 11.75106048583984 L 21.93272018432617 2.429199241760216e-07 L 21.93272018432617 11.75106048583984 Z" stroke="none" fill="#ec5865"/></g><g id="Elipse_10" data-name="Elipse 10" transform="translate(597 768)" fill="none" stroke="#ec5865" stroke-width="1.5"><circle cx="14" cy="14" r="14" stroke="none"/><circle cx="14" cy="14" r="13.25" fill="none"/></g></g></svg>