<svg xmlns="http://www.w3.org/2000/svg" width="30.018" height="36.982" viewBox="0 0 30.018 36.982"><g id="icon_justificativa" transform="translate(-6779.106 -3687)"><path id="Caminho_313" data-name="Caminho 313" d="M240.906,374.64H222.334a1.082,1.082,0,0,0,0,2.165h18.572a1.082,1.082,0,0,0,0-2.165Z" transform="translate(6562.494 3338.646)" fill="#5eba8d" fill-rule="evenodd"/><path id="Caminho_315" data-name="Caminho 315" d="M193.3,56.486l-6.314-5.8a1.092,1.092,0,0,0-.749-.284h-19.2a3.405,3.405,0,0,0-3.4,3.405V83.974a3.405,3.405,0,0,0,3.4,3.405H190.25a3.405,3.405,0,0,0,3.4-3.405V57.284a1.082,1.082,0,0,0-.352-.8Zm-6.612-3.121,4.361,4h-4.361Zm4.8,30.609a1.236,1.236,0,0,1-1.236,1.236H167.042a1.236,1.236,0,0,1-1.24-1.236V53.8a1.236,1.236,0,0,1,1.24-1.236h17.467V58.43a1.082,1.082,0,0,0,1.082,1.082h5.863Z" transform="translate(6615.469 3636.602)" fill="#5eba8d" fill-rule="evenodd"/><path id="Caminho_316" data-name="Caminho 316" d="M241.189,274.73H222.621a1.082,1.082,0,1,0,0,2.165h18.567a1.082,1.082,0,1,0,0-2.165Z" transform="translate(6562.23 3432.533)" fill="#5eba8d" fill-rule="evenodd"/><path id="Caminho_317" data-name="Caminho 317" d="M241.189,224.34H222.621a1.082,1.082,0,1,0,0,2.165h18.567a1.082,1.082,0,1,0,0-2.165Z" transform="translate(6562.23 3476.899)" fill="#5eba8d" fill-rule="evenodd"/></g></svg>