<svg xmlns="http://www.w3.org/2000/svg" width="34.063" height="30.861" viewBox="0 0 34.063 30.861"><path id="icon_mesario" d="M153.465,85.883h-2.21V84.745a6.393,6.393,0,0,0-3.356-5.6,4.2,4.2,0,1,0-5.978,0,6.327,6.327,0,0,0-3.352,5.6v1.138h-2.276V84.745a6.393,6.393,0,0,0-3.357-5.6,4.2,4.2,0,1,0-5.978,0,6.327,6.327,0,0,0-3.352,5.6v1.138H121.4a1,1,0,0,0-1,1v14.955h0a1,1,0,0,0,1.994,0v-2.2h30.071v2.21h0a1,1,0,1,0,2,0V86.892h0a1,1,0,0,0-1-1ZM142.706,76.2a2.21,2.21,0,1,1,.647,1.554,2.209,2.209,0,0,1-.647-1.554Zm-2.139,8.545a4.345,4.345,0,0,1,7.419-3.074,4.391,4.391,0,0,1,1.275,3.074v1.138h-8.695ZM127.739,76.2a2.21,2.21,0,1,1,.652,1.559,2.21,2.21,0,0,1-.652-1.559ZM125.6,84.744a4.347,4.347,0,1,1,8.694,0v1.138H125.6Zm-3.207,3.132h30.071v9.762H122.393Z" transform="translate(-120.399 -71.985)" fill="#ec5865" fill-rule="evenodd"/></svg>