<svg id="Camada_2" data-name="Camada 2" xmlns="http://www.w3.org/2000/svg" width="220.647" height="220.667" viewBox="0 0 220.647 220.667"><g id="Camada_1" data-name="Camada 1"><path id="Caminho_61" data-name="Caminho 61" d="M402.67,139.66v5.356h5.387v5.348h5.321v-5.156h5.448v10.666l.062-.054-16.21.054v-5.283h-10.6v5.233h10.654v5.437h16.16l-.058-.054v5.441h5.441l-.058-.05v5.387h-5.244v5.36h5.187v5.364h-5.187V193.4H424.2v-5.164h5.364v-5.325h5.3v21.37h-5.16v5.287h-5.421V204.37h-5.36v-5.36h-5.344v-5.333H408.13v5.233H397.287l.058.058v-5.279H391.9v5.279l.054-.058h-5.387v-5.294H370.488v-5.367c-4.425.569-2.986-3.336-4.7-5.321h9.9v5.125h5.429v-5.283h5.433v5.267h5.237v-5.217H386.5v-5.387h5.387v-5.275h10.858v5.26h-5.291v10.6h10.539v-5.283h-5.31v-5.387h10.67V166.678h-15.96v-5.341h-5.417v5.129h-5.352v-5.075H381.2v5.125h-5.287V155.951h10.466V150.5h-5.121V139.729h5.291l-.054-.058v5.264h10.923v-5.217h5.31Z" transform="translate(-225.047 -85.924)" fill="#333b6a"/><path id="Caminho_62" data-name="Caminho 62" d="M367.2,454.1H361.84V448.75H356.35l.05.058v-5.5h5.271V421.951h-5.352v5.237h-5.36l.058.058v-5.491H334.764v-5.167h-5.179V427.3H334.7v5.425H323.987v5.341h-5.348v5.387l.058-.062h-5.356v5.3H308V438.111h5.31V432.6l-.058.05H318.7v-5.441l-.058.054h5.279V421.82h-5.279l.069.062v-5.36h5.275v-5.283h16.16v5.11h5.425v-5.287H351v5.267h5.237v-5.217h-5.29v-5.387H361.79l-.058-.062V416.33h5.444V405.66l-.058.058h5.471v16h10.743v-5.283l-.054.058h10.773v5.256h5.329v-5.16H404.8v5.194h5.317v5.356h-10.6v5.421h-5.348v5.41h-5.421V448.7h-5.387V454h-5.414v-5.117h-10.8v5.283Zm.058-26.764v15.945h15.914V427.338Z" transform="translate(-189.492 -249.576)" fill="#333b6a"/><path id="Caminho_63" data-name="Caminho 63" d="M341.374,320.868V315.52h10.75v-5.483l-.054.054h5.321V315.3h5.352V304.716h-5.125V294h5.171v5.21h5.387v5.367h21.547v5.5h5.514l-.054-.058V315.4H384.567v5.333h10.512v-5.387l5.521.112-.062-.054V320.8h5.356v5.348h5.333v5.371h-5.187v10.773h-5.5v5.521l.054-.058h-5.444v-16.16h5.294v-5.233h-5.24v5.279h-5.475V326.37h-5.348v10.65l.058-.058H379l.058.062V331.68h-5.448V326.2h5.287V310.206h-5.233v16.045h-5.367v-5.317h-10.67v10.635h5.133v5.279H336.06v-5.14h10.589v-5.414h5.287V320.81H341.312Z" transform="translate(-206.756 -180.879)" fill="#333b6a"/><path id="Caminho_64" data-name="Caminho 64" d="M86.9,175.265h5.279v10.693H81.507v10.85l.058-.054-5.437.058v-5.468H70.741v-5.187H65.3v5.087h-5.36v-5.283h-16v-5.352H54.466V175.4H38.552v16.049H54.635v5.364l-21.6-.054.054.054v-5.441H27.64l.062.05v-5.306h5.256V169.9h5.387v-5.337H33.088v-5.514l-.058.05H43.858V153.66l-.054.054h5.441l-.054-.054V159.1h5.441l-.054-.05v5.387H43.939v5.279H59.964v-5.152h5.444v10.693H60.1v5.225h5.241V175.2l10.823.062-.054-.058v5.283H86.936v-5.283Z" transform="translate(-17.005 -94.537)" fill="#333b6a"/><path id="Caminho_65" data-name="Caminho 65" d="M5.281,251.741l5.452-.031-.062-.05V257.1h5.444l-.054-.054V267.92H5.424v5.329h10.72v10.735H21.5v5.387H26.89v5.479h10.72v5.344l.054-.054H27v5.441H37.663l-.054-.054.058,5.441H26.836v5.387l.054-.058H16.062l.058.054q-.027-5.41-.062-10.82h5.294V300.31H16.112v5.279H10.749v-5.317H5.389v5.156H.1V294.834H10.606V289.5H5.281V284h5.3v-5.237H5.331v5.271H.06V257.1H5.339v-5.414Z" transform="translate(-0.037 -154.83)" fill="#333b6a"/><path id="Caminho_66" data-name="Caminho 66" d="M267.856,112.992h-5.367v7.164l-5.329.943c-.062-.866-.115-1.67-.192-2.724H251.63l.062.065V113h5.387v-5.421h5.341V96.84h16.056V91.4H267.852V80.68l-.054.058h5.441l-.054-.058v5.287h10.67V75.293h-5.283l.058.054V70.06h10.639V91.407h-5.175v5.3h10.62v-5.1h10.666v15.918h-5.152v-5.148h-5.36V112.95h5.171v5.421H289.456v5.387h-5.364l-.2,1.708a1.7,1.7,0,0,1-.558-.042,8.144,8.144,0,0,0-1.185-.623c-3.417-.916-4.036-3.344-3.524-6.406l-.058.05h5.521v-5.491h5.16V102.392h-16.1v5.279H267.8v5.387Z" transform="translate(-154.812 -43.103)" fill="#333b6a"/><path id="Caminho_67" data-name="Caminho 67" d="M209.48,268.812a23.639,23.639,0,0,1,.385-2.651c1.062-3.948,2.2-7.88,3.232-11.835a2.959,2.959,0,0,0-.154-1.924c-9.315-18.053,2.351-40.312,22.5-42.878,16.052-2.043,31.135,9.077,33.232,25.01a29.567,29.567,0,0,1-28.9,33.805,28.307,28.307,0,0,1-12.84-2.693,4.521,4.521,0,0,0-3.44-.242c-3.817,1.066-7.649,2.078-11.485,3.078A23.639,23.639,0,0,1,209.48,268.812Zm7.511-7.211c2.659-.673,4.89-1.154,7.072-1.828a4.583,4.583,0,0,1,3.821.446,23.968,23.968,0,1,0-9.577-9.327,4.416,4.416,0,0,1,.554,3.959C218.176,256.9,217.7,259.027,216.991,261.6Z" transform="translate(-128.879 -128.757)" fill="#333b6a"/><path id="Caminho_68" data-name="Caminho 68" d="M105.187,76.159v5.387H89.027l.054.05V76.159H83.644l.054.054V70.772l-.058.054h5.283V65.385H83.644l.062.054V60.13H94.36v-27h5.433V27.748h5.448l-.054-.058v5.429h5.444l-.054-.054q0,2.693-.019,5.387H99.985v5.321H110.5V38.386h5.514V33.065l-.054.058h16.056v5.291h-5.225v10.8l.054-.062h-5.36V54.67h-5.514V49.379h-5.225v5.237h5.279V59.96H99.8v5.483l.065-.058H94.579V76.213h10.666Zm-5.21-26.834v5.217h5.129V49.325Z" transform="translate(-51.458 -17.036)" fill="#333b6a"/><path id="Caminho_69" data-name="Caminho 69" d="M247.421,16.037V21.4h-5.367v5.344H236.59v5.494l.058-.05h-5.483v5.387h-5.348l.054.054V26.8h5.244V16.195h-5.333v5.283H220.43v16.16l.054-.058h-5.344V32.193H209.66l.054.058V26.88H215.1V5.26l-.058.058h5.387v5.256h5.387V.023h10.85V5.314h-5.329v5.217h5.248V5.26h5.387V0h10.739V10.6H258V21.32h-5.114V16.091h-5.518V10.8h-5.229v5.237Z" transform="translate(-128.99)" fill="#333b6a"/><path id="Caminho_70" data-name="Caminho 70" d="M37.472,37.621H0V.16H37.472ZM32.132,5.485H5.414V32.176H32.132Z" transform="translate(0 -0.098)" fill="#333b6a"/><path id="Caminho_71" data-name="Caminho 71" d="M513.461,37.633H476V.18h37.457Zm-32.1-5.448h26.76V5.5h-26.76Z" transform="translate(-292.852 -0.111)" fill="#333b6a"/><path id="Caminho_72" data-name="Caminho 72" d="M37.472,513.607H0V476.15H37.472ZM5.36,508.17h26.7V481.479H5.36Z" transform="translate(0 -292.944)" fill="#333b6a"/><path id="Caminho_73" data-name="Caminho 73" d="M461.688,533.863l.023-10.843-.054.058h5.3v5.3h10.808v5.387H483.1v-5.225h5.421V523.19h10.889v-5.51l-.062.054h5.279v16.076H499.41v5.318H467.159v-5.321H461.63Z" transform="translate(-284.011 -318.495)" fill="#333b6a"/><path id="Caminho_74" data-name="Caminho 74" d="M175.279,432.65v-5.387h-5.348V416.609H164.51v15.906H159.2V416.44h-5.5l.05.054v-5.441l-.054.054h10.773V405.67h5.506v5.387h16.1q-.027,10.8-.054,21.6l.054-.062H175.225Zm.042-10.95h5.21v-5.11h-5.21Z" transform="translate(-94.555 -249.582)" fill="#333b6a"/><path id="Caminho_75" data-name="Caminho 75" d="M203.509,144.235h-5.387v10.7h-5.275V138.906H198v-5.348h-5.217v-5.348H182.07v-10.8h5.191V112.08h5.36v5.287h5.506l-.058-.062v5.387h5.441q-.027,10.8-.054,21.6Z" transform="translate(-112.016 -68.956)" fill="#333b6a"/><path id="Caminho_76" data-name="Caminho 76" d="M250.576,447.66v5.433l.065-.062h-5.287V463.8h5.156v5.329h-10.7v5.514l.058-.054h-5.448v-5.233h-5.325v10.673l-5.441-.054.062.054V463.928H229.1v-5.5l-.054.062,5.421-.042v5.267H239.7V458.5h-5.294v-5.487h5.537v-5.294h10.693Z" transform="translate(-137.597 -275.416)" fill="#333b6a"/><path id="Caminho_77" data-name="Caminho 77" d="M542.769,300.392h-5.387v-5.3h-5.3V284.351h5.171v-5.387h5.429V252.05h5.275v32.12h-5.1v10.823h5.137v10.658h-5.225Z" transform="translate(-327.354 -155.07)" fill="#333b6a"/><path id="Caminho_78" data-name="Caminho 78" d="M125.645,500.513h5.441V489.67l-.054.058H141.7v5.3h-5.121v5.367H147.05v10.793h-5.117v5.356h5.152v5.387H136.507V505.957h-5.429v10.6H125.63l.058.058V500.436Z" transform="translate(-77.292 -301.262)" fill="#333b6a"/><path id="Caminho_79" data-name="Caminho 79" d="M167.64,257.31h5.387V252h5.333v10.566l2.058.192a34.933,34.933,0,0,0,2.99,16.056h-4.933v16.141h-5.444l.058.062v-5.441h-5.444l.058.054V278.737h5.464v-5.352h5.2v-5.364H167.7V257.248Z" transform="translate(-103.138 -155.039)" fill="#333b6a"/><path id="Caminho_80" data-name="Caminho 80" d="M181.65,368.932h10.677c.1-.643.181-1.154.231-1.5l15.972-4.052v5.387H219.3c.062-.646.119-1.312.189-2.062h5.156v7.549H213.966V379.7l.058-.054-5.441.054v-5.283H197.718v5.14h-5.333v-5.244H181.65l.054-5.441Z" transform="translate(-111.757 -223.564)" fill="#333b6a"/><path id="Caminho_81" data-name="Caminho 81" d="M385.528,91.2h-5.387V85.882H364.1v-10.7h5.179v5.171h5.352V69.722h10.9l-.054-.062q0,2.693-.038,5.352h-5.214v5.344H385.4V74.97l5.529.131-.054-.054V85.909h-5.387v5.352Z" transform="translate(-224.007 -42.857)" fill="#333b6a"/><path id="Caminho_82" data-name="Caminho 82" d="M122.485,438.249H111.812V427.571h5.106V416.694H111.65l.054.058q-.023-2.72-.05-5.441h5.483V406.09H127.81v5.275l.054-.054h-5.279v5.441h5.279l-.05-.054v5.367h-5.387v16.241Z" transform="translate(-68.691 -249.841)" fill="#333b6a"/><path id="Caminho_83" data-name="Caminho 83" d="M13.7,128.12V117.3l-.062.065H24.4v5.24h5.36V112.06h5.36v5.287h5.518l-.062-.054v5.441l.058-.054H35.191v5.441l.054-.054H24.417v5.441l.058-.05H19.031l.058.062v-5.452H13.644Z" transform="translate(-8.392 -68.943)" fill="#333b6a"/><path id="Caminho_84" data-name="Caminho 84" d="M461.644,111.722h26.818v10.627H477.908v-5.171H467.084v5.244H461.64l.062.058V111.66Z" transform="translate(-284.017 -68.697)" fill="#333b6a"/><path id="Caminho_85" data-name="Caminho 85" d="M129.97,355.043v5.448l.054-.058H119.147v5.387H97.65l.054.054v-5.441l-.054.054h16.295V355.02h5.344v-5.306h5.387l-.058-.054V355.1h5.41Z" transform="translate(-60.078 -215.123)" fill="#333b6a"/><path id="Caminho_86" data-name="Caminho 86" d="M265.64,517.714h10.773v5.341h5.279v16.014H265.7v-5.244l-.058.05h10.67v-5.456h-5.271v-5.387H265.7V517.66Z" transform="translate(-163.431 -318.482)" fill="#333b6a"/><path id="Caminho_87" data-name="Caminho 87" d="M357.468,5.271v5.31h-5.252v5.352h-5.433v-5.19h-5.414V5.317H336.09V0h15.929V5.329h5.506Z" transform="translate(-206.774)" fill="#333b6a"/><path id="Caminho_88" data-name="Caminho 88" d="M385.193,537.047v10.666H379.9v-5.175H363.712V531.66l-.062.054h10.866V537.1h10.735Z" transform="translate(-223.73 -327.096)" fill="#333b6a"/><path id="Caminho_89" data-name="Caminho 89" d="M346.485,506.029h-5.314v-5.31h-5.464v-5.468l-.058.062h10.873V490h5.329v5.352h10.731v5.36l.058-.058H346.423v5.429Z" transform="translate(-206.504 -301.465)" fill="#333b6a"/><path id="Caminho_90" data-name="Caminho 90" d="M153.7,184.13V178.69l-.058.05h5.279V173.3h-5.275l.058.054V168.07h16.01v10.546h-5.294v5.514l.054-.058H153.644Z" transform="translate(-94.525 -103.403)" fill="#333b6a"/><path id="Caminho_91" data-name="Caminho 91" d="M556.6,159.256v5.36h-5.179V170h5.152v10.681h-5.152v-5.137H546.05V154h5.175v5.252Z" transform="translate(-335.949 -94.746)" fill="#333b6a"/><path id="Caminho_92" data-name="Caminho 92" d="M212.151,542.426h-5.387v5.306H196.11v-5.214h5.106v-5.387h-5.1v-5.418h10.65l-.062-.054v5.387h5.441l-.054,5.444Z" transform="translate(-120.654 -327.096)" fill="#333b6a"/><path id="Caminho_93" data-name="Caminho 93" d="M189.481,5.358h-5.387v5.294H173.321V5.443H168V.16h21.4V5.416Z" transform="translate(-103.359 -0.098)" fill="#333b6a"/><path id="Caminho_94" data-name="Caminho 94" d="M265.64,405.714h10.773v5.306h10.67v5.414h-5.221v5.387H276.41l.062.058v-5.471h-5.491v-5.3h-5.333q.023-2.724.05-5.444Z" transform="translate(-163.431 -249.576)" fill="#333b6a"/><path id="Caminho_95" data-name="Caminho 95" d="M57.866,430.433h-5.36v5.3H47.178V430.43H41.66l.058.054v-5.433l-.058.05H52.483V419.66l-.054.058,10.827-.058q-.031,2.716-.054,5.441l.054-.054H57.812v5.444Z" transform="translate(-25.631 -258.189)" fill="#333b6a"/><path id="Caminho_96" data-name="Caminho 96" d="M359.152,210.13v5.187h10.6v5.433H357.867c-6.287,0-6.287,0-10.266-4.894a2.214,2.214,0,0,1-.112-.412h6.156V210.13Z" transform="translate(-213.788 -129.279)" fill="#333b6a"/><path id="Caminho_97" data-name="Caminho 97" d="M125.63,125.718h10.75v5.291h5.283v5.425H131.021l.058.054V131h-5.387V125.66Z" transform="translate(-77.292 -77.31)" fill="#333b6a"/><path id="Caminho_98" data-name="Caminho 98" d="M16.029,447.65v5.291H0V447.7H16.087Z" transform="translate(0 -275.41)" fill="#333b6a"/><path id="Caminho_99" data-name="Caminho 99" d="M391.708,5.378V.08h10.573V10.588h-5.11V5.321H391.65Z" transform="translate(-240.957 -0.049)" fill="#333b6a"/><path id="Caminho_100" data-name="Caminho 100" d="M433.92,10.593V.07H444.5V5.222h-5.233v5.387Z" transform="translate(-266.963 -0.043)" fill="#333b6a"/><path id="Caminho_101" data-name="Caminho 101" d="M416.433,517.65v10.773h-5.387l.058.054V523h-5.387v-5.344l-.058.058h10.827Z" transform="translate(-249.576 -318.476)" fill="#333b6a"/><path id="Caminho_102" data-name="Caminho 102" d="M411.306,52.772V47.385H406V42.11h10.627V52.764l.058-.054h-5.433Z" transform="translate(-249.785 -25.908)" fill="#333b6a"/><path id="Caminho_103" data-name="Caminho 103" d="M332.483,360.173v5.387H321.71l.058.054c-.142-5.387-.142-5.406,4.936-7.634a2.128,2.128,0,0,1,.312.1c.058.608.119,1.274.2,2.159h5.344Z" transform="translate(-197.927 -220.242)" fill="#333b6a"/><path id="Caminho_104" data-name="Caminho 104" d="M368.7,309.889H363c.385-2,.62-3.848,1.108-5.591.95-3.421,2.043-6.8,3.151-10.454l1.4-.085v16.183Z" transform="translate(-223.33 -180.731)" fill="#333b6a"/><path id="Caminho_105" data-name="Caminho 105" d="M139.694,10.78V.13h5.337V10.776l.054-.054H139.64Z" transform="translate(-85.911 -0.08)" fill="#333b6a"/><path id="Caminho_106" data-name="Caminho 106" d="M313.256,377.65v10.677H308V377.7h5.31Z" transform="translate(-189.492 -232.343)" fill="#333b6a"/><path id="Caminho_107" data-name="Caminho 107" d="M447.67,83.712h5.387V94.485l.058-.062h-5.387V83.65Z" transform="translate(-275.422 -51.464)" fill="#333b6a"/><path id="Caminho_108" data-name="Caminho 108" d="M447.848,52.8V42.1h5.19V52.743H447.79Z" transform="translate(-275.496 -25.901)" fill="#333b6a"/><path id="Caminho_109" data-name="Caminho 109" d="M13.808,206.793V196.12h5.2v10.62H13.75Z" transform="translate(-8.459 -120.66)" fill="#333b6a"/><path id="Caminho_110" data-name="Caminho 110" d="M5.351,234.487H.08v-10.72H5.4l-.058-.058-.046,10.835Z" transform="translate(-0.049 -137.634)" fill="#333b6a"/><path id="Caminho_111" data-name="Caminho 111" d="M304.481,187.057H293.708V181.67l-.058.065h10.773v5.387Z" transform="translate(-180.664 -111.77)" fill="#333b6a"/><path id="Caminho_112" data-name="Caminho 112" d="M293.61,461.682h10.843l-.054-.058v5.452l.058-.05H293.683V461.62Z" transform="translate(-180.639 -284.005)" fill="#333b6a"/><path id="Caminho_113" data-name="Caminho 113" d="M201.256,475.64v10.677H196V475.7h5.31Z" transform="translate(-120.586 -292.63)" fill="#333b6a"/><path id="Caminho_114" data-name="Caminho 114" d="M560.05,486.8V476h5.087v10.773H560Z" transform="translate(-344.532 -292.852)" fill="#333b6a"/><path id="Caminho_115" data-name="Caminho 115" d="M542.763,509.264H532.09v-5.24h10.773l-.035-.023q-.058,2.666-.123,5.333Z" transform="translate(-327.36 -310.078)" fill="#333b6a"/><path id="Caminho_116" data-name="Caminho 116" d="M243.029,195.63c.693,3.282-.327,5.614-3.678,6.68a11.932,11.932,0,0,0-1.647.87v-7.541l-.054.062h5.441Z" transform="translate(-146.211 -120.358)" fill="#333b6a"/><path id="Caminho_117" data-name="Caminho 117" d="M201.121,83.542v5.294h-5.287V83.48s-.054.062-.054.058l5.387.062Z" transform="translate(-120.451 -51.36)" fill="#333b6a"/><path id="Caminho_118" data-name="Caminho 118" d="M307.7,89.111V83.724h5.387l-.058-.054v5.387H307.64Z" transform="translate(-189.271 -51.477)" fill="#333b6a"/><path id="Caminho_119" data-name="Caminho 119" d="M237.724,103.094V97.65l-.054.058h5.441l-.054-.054v5.387H237.67Z" transform="translate(-146.223 -60.078)" fill="#333b6a"/><path id="Caminho_120" data-name="Caminho 120" d="M5.364,117.264H.07V112H5.3v5.325Z" transform="translate(-0.043 -68.906)" fill="#333b6a"/><path id="Caminho_121" data-name="Caminho 121" d="M223.7,117.121v-5.387h5.387l-.062-.054q.027,2.72.054,5.437l-5.441-.05Z" transform="translate(-137.591 -68.709)" fill="#333b6a"/><path id="Caminho_122" data-name="Caminho 122" d="M560,111.86h5.11v5.2H560Z" transform="translate(-344.532 -68.82)" fill="#333b6a"/><path id="Caminho_123" data-name="Caminho 123" d="M489.7,327.369V322.09h5.325v5.279l.065-.058H489.65Z" transform="translate(-301.25 -198.161)" fill="#333b6a"/><path id="Caminho_124" data-name="Caminho 124" d="M439.037,293.65v5.271H433.7V293.65l-.054.058h5.444Z" transform="translate(-266.797 -180.664)" fill="#333b6a"/><path id="Caminho_125" data-name="Caminho 125" d="M503.63,335.718h5.279v5.329h-5.275l.062.054V335.66Z" transform="translate(-309.851 -206.51)" fill="#333b6a"/><path id="Caminho_126" data-name="Caminho 126" d="M5.273,406.09v5.14H.14v-5.14Z" transform="translate(-0.086 -249.841)" fill="#333b6a"/><path id="Caminho_127" data-name="Caminho 127" d="M517.644,195.722h5.267v5.329H517.64l.058.05V195.66Z" transform="translate(-318.47 -120.377)" fill="#333b6a"/><path id="Caminho_128" data-name="Caminho 128" d="M279.65,83.7h5.387v5.387l.054-.058H279.7V83.64Z" transform="translate(-172.05 -51.458)" fill="#333b6a"/><path id="Caminho_129" data-name="Caminho 129" d="M117.287.12V5.245H112.15V.12Z" transform="translate(-68.999 -0.074)" fill="#333b6a"/><path id="Caminho_130" data-name="Caminho 130" d="M532,411.183V406h5.148v5.183Z" transform="translate(-327.305 -249.785)" fill="#333b6a"/><path id="Caminho_131" data-name="Caminho 131" d="M33.365,425.051H28.09v-5.337h5.275l-.058-.054V425.1Z" transform="translate(-17.282 -258.189)" fill="#333b6a"/><path id="Caminho_132" data-name="Caminho 132" d="M503.64,181.714h5.387V187.1l.054-.062h-5.437l.058.054V181.66Z" transform="translate(-309.857 -111.764)" fill="#333b6a"/><path id="Caminho_133" data-name="Caminho 133" d="M103.031,433.65v5.387H97.644l.05.054v-5.437l-.054.054h5.441Z" transform="translate(-60.072 -266.797)" fill="#333b6a"/><path id="Caminho_134" data-name="Caminho 134" d="M145.39,187.051h-5.26v-5.337h5.26l-.058-.054V187.1Z" transform="translate(-86.213 -111.764)" fill="#333b6a"/><path id="Caminho_135" data-name="Caminho 135" d="M89.034,447.66v5.275H83.694V447.66l-.054.058h5.444Z" transform="translate(-51.458 -275.416)" fill="#333b6a"/><path id="Caminho_136" data-name="Caminho 136" d="M153.65,27.714h5.387V33.1l.054-.058H153.65l.054.054V27.66Z" transform="translate(-94.531 -17.017)" fill="#333b6a"/><path id="Caminho_137" data-name="Caminho 137" d="M321.7,453.1v-5.387h5.387l-.069-.062v5.444l.058-.054H321.65Z" transform="translate(-197.89 -275.41)" fill="#333b6a"/><path id="Caminho_138" data-name="Caminho 138" d="M19.037,167.65v5.275H13.715v-5.271l-.065.058h5.444Z" transform="translate(-8.398 -103.144)" fill="#333b6a"/><path id="Caminho_139" data-name="Caminho 139" d="M518,159.215V154.09h5.164v5.125Z" transform="translate(-318.692 -94.802)" fill="#333b6a"/><path id="Caminho_140" data-name="Caminho 140" d="M433.64,69.714l5.5.038-.058-.054-.046,5.387.05-.058h-5.444l.054.054V69.66Z" transform="translate(-266.79 -42.857)" fill="#333b6a"/><path id="Caminho_141" data-name="Caminho 141" d="M5.385,159.047H.11v-5.333H5.377l-.058-.054V159.1Z" transform="translate(-0.068 -94.537)" fill="#333b6a"/><path id="Caminho_142" data-name="Caminho 142" d="M117.364,509.264H112.07V504H117.3v5.329Z" transform="translate(-68.949 -310.078)" fill="#333b6a"/><path id="Caminho_143" data-name="Caminho 143" d="M419.694,131.1V125.65l-.054.058h5.279v5.333H419.64Z" transform="translate(-258.177 -77.304)" fill="#333b6a"/><path id="Caminho_144" data-name="Caminho 144" d="M257.094,551.063H251.65l.058.062q-.031-2.724-.054-5.444h5.387v5.433Z" transform="translate(-154.824 -335.721)" fill="#333b6a"/><path id="Caminho_145" data-name="Caminho 145" d="M335.945,551.473V546.14h5.129v5.275H335.88Z" transform="translate(-206.645 -336.004)" fill="#333b6a"/><path id="Caminho_146" data-name="Caminho 146" d="M117.244,559.59v5.3H112v-5.24h5.3Z" transform="translate(-68.906 -344.279)" fill="#333b6a"/><path id="Caminho_147" data-name="Caminho 147" d="M243.037,559.644v5.275h-5.329V559.64l-.058.065h5.444Z" transform="translate(-146.211 -344.31)" fill="#333b6a"/><path id="Caminho_148" data-name="Caminho 148" d="M327.421,559.85v5.221H322.13v-5.164h5.356Z" transform="translate(-198.186 -344.439)" fill="#333b6a"/><path id="Caminho_149" data-name="Caminho 149" d="M453.244,559.59v5.3H448v-5.24h5.3Z" transform="translate(-275.625 -344.279)" fill="#333b6a"/><path id="Caminho_150" data-name="Caminho 150" d="M402.713,461.62v5.437l.058-.058h-5.387v5.333H392.12V461.678h10.65Z" transform="translate(-241.246 -284.005)" fill="#333b6a"/><path id="Caminho_151" data-name="Caminho 151" d="M419.66,475.658h5.275v5.256h-5.217V475.6Z" transform="translate(-258.189 -292.606)" fill="#333b6a"/><path id="Caminho_152" data-name="Caminho 152" d="M481.234,476v5.125H476.07V476Z" transform="translate(-292.895 -292.852)" fill="#333b6a"/><path id="Caminho_153" data-name="Caminho 153" d="M61.31,287.261v-5.387H56v-5.387H66.693l-.054-.062V281.7H77.47V271.039l-.058.062h5.356V265.66H93.626v10.773H88.32v5.356H93.5v5.356H82.8v5.5l.062-.054H77.412l.058.058v-5.444H61.252Z" transform="translate(-34.453 -163.443)" fill="#333b6a"/><path id="Caminho_154" data-name="Caminho 154" d="M69.654,341.1l.062-5.437-.065.058H85.868l-.058-.058V341.1l.058-.058Z" transform="translate(-42.851 -206.51)" fill="#333b6a"/><path id="Caminho_155" data-name="Caminho 155" d="M125.64,335.714h5.271v5.325h-5.267l.058.065V335.66Z" transform="translate(-77.298 -206.51)" fill="#333b6a"/><path id="Caminho_156" data-name="Caminho 156" d="M117.037,349.64v5.275h-5.329v-5.271l-.058.058h5.444Z" transform="translate(-68.691 -215.111)" fill="#333b6a"/><path id="Caminho_157" data-name="Caminho 157" d="M97.708,271.1l-.058-5.441h5.387v5.448l.058-.062H97.65Z" transform="translate(-60.078 -163.443)" fill="#333b6a"/><path id="Caminho_158" data-name="Caminho 158" d="M83.7,285.121v-5.387h5.387l-.058-.054v5.387H83.64Z" transform="translate(-51.458 -172.069)" fill="#333b6a"/><path id="Caminho_159" data-name="Caminho 159" d="M61.108,327.047l-5.448.054v-5.387H61.1l-.058-.054V327.1Z" transform="translate(-34.244 -197.896)" fill="#333b6a"/><path id="Caminho_160" data-name="Caminho 160" d="M173.367,391.67V397.1H168.1V391.67Z" transform="translate(-103.421 -240.969)" fill="#333b6a"/><path id="Caminho_161" data-name="Caminho 161" d="M103.091,411.1H97.65V405.66h5.441Z" transform="translate(-60.078 -249.576)" fill="#333b6a"/><path id="Caminho_162" data-name="Caminho 162" d="M271.091,122.764H265.65V112.11h5.441Z" transform="translate(-163.437 -68.974)" fill="#333b6a"/><path id="Caminho_163" data-name="Caminho 163" d="M257.1,139.66v5.279H251.66v-5.275Z" transform="translate(-154.83 -85.924)" fill="#333b6a"/><path id="Caminho_164" data-name="Caminho 164" d="M237.66,131.107V125.67H243.1v5.437Z" transform="translate(-146.217 -77.317)" fill="#333b6a"/><path id="Caminho_165" data-name="Caminho 165" d="M271.1,278.474a24.209,24.209,0,0,1-11.832-5.037,32.74,32.74,0,0,1-8.792-10.3c-2.112-3.932-1.654-7.992,1.081-10.639,1.924-1.874,4.3-1.424,5.325,1.027a20.216,20.216,0,0,0,.943,2.309c1.224,2.116,1.385,3.994-.631,5.81a2.283,2.283,0,0,0-.062,2.147,19.173,19.173,0,0,0,8.634,7.634c1.243.573,2.178.546,2.94-.693.262-.435.7-.77.954-1.2.827-1.416,1.9-1.481,3.232-.743,1,.558,2.074,1,3.113,1.5,2.555,1.227,2.982,3.913.862,5.891A7.837,7.837,0,0,1,271.1,278.474Z" transform="translate(-153.287 -154.638)" fill="#333b6a"/><path id="Caminho_166" data-name="Caminho 166" d="M28.13,520.038H44.04V504.12H28.13Z" transform="translate(-17.307 -310.152)" fill="#333b6a"/><path id="Caminho_167" data-name="Caminho 167" d="M28.13,520.038H44.04V504.12H28.13Z" transform="translate(-17.307 -310.152)" fill="#333b6a" stroke="#fff" stroke-linecap="round" stroke-linejoin="round"/><path id="Caminho_168" data-name="Caminho 168" d="M243.1,405.67v5.437H237.66V405.67Z" transform="translate(-146.217 -249.582)" fill="#333b6a"/><path id="Caminho_169" data-name="Caminho 169" d="M251.66,419.67H257.1v5.279H251.66Z" transform="translate(-154.83 -258.196)" fill="#333b6a"/><path id="Caminho_170" data-name="Caminho 170" d="M243.091,537.107H237.65V531.67h5.437Z" transform="translate(-146.211 -327.102)" fill="#333b6a"/><path id="Caminho_171" data-name="Caminho 171" d="M28,44.068H43.925V28.15H28Z" transform="translate(-17.227 -17.319)" fill="#333b6a"/><path id="Caminho_172" data-name="Caminho 172" d="M28,44.068H43.925V28.15H28Z" transform="translate(-17.227 -17.319)" fill="#333b6a" stroke="#fff" stroke-linecap="round" stroke-linejoin="round"/><path id="Caminho_173" data-name="Caminho 173" d="M504,44.084h15.91V28.17H504Z" transform="translate(-310.078 -17.331)" fill="#333b6a"/><path id="Caminho_174" data-name="Caminho 174" d="M504,44.084h15.91V28.17H504Z" transform="translate(-310.078 -17.331)" fill="#333b6a" stroke="#fff" stroke-linecap="round" stroke-linejoin="round"/></g></svg>