<svg xmlns="http://www.w3.org/2000/svg" width="23.623" height="33.747" viewBox="0 0 23.623 33.747"><g id="icon_resultados" transform="translate(-552 -363.797)"><g id="icon_resultado" transform="translate(-2800.813 -3766.359)"><path id="Caminho_746" data-name="Caminho 746" d="M189.31,17.5h-22.5a.562.562,0,0,0-.562.562V50.684a.562.562,0,0,0,.562.562h22.5a.562.562,0,0,0,.562-.562V18.062a.562.562,0,0,0-.562-.562Zm-.562,32.622H167.375v-31.5h21.373Z" transform="translate(3186.563 4112.656)" fill="#5eba8d"/><path id="Caminho_747" data-name="Caminho 747" d="M201.812,115.373h18a.562.562,0,0,0,.562-.562v-18a.562.562,0,0,0-.562-.562h-18a.562.562,0,0,0-.562.562v18a.562.562,0,0,0,.562.562Zm.562-18h16.873v16.873H202.375Z" transform="translate(3153.812 4038.968)" fill="#5eba8d"/><path id="Caminho_748" data-name="Caminho 748" d="M236.812,136.874h4.5a.562.562,0,0,0,.562-.562v-4.5a.562.562,0,0,0-.562-.562h-4.5a.562.562,0,0,0-.562.562v4.5a.562.562,0,0,0,.562.562Zm.562-4.5h3.375v3.375h-3.375Z" transform="translate(3121.062 4006.218)" fill="#5eba8d"/><path id="Caminho_749" data-name="Caminho 749" d="M271.25,166.25h1.125v1.125H271.25Z" transform="translate(3088.312 3973.467)" fill="#5eba8d"/><path id="Caminho_750" data-name="Caminho 750" d="M381.312,131.25h-4.5a.563.563,0,0,0-.562.562v4.5a.562.562,0,0,0,.562.562h4.5a.562.562,0,0,0,.562-.562v-4.5a.562.562,0,0,0-.562-.562Zm-.562,4.5h-3.375v-3.375h3.375Z" transform="translate(2990.061 4006.218)" fill="#5eba8d"/><path id="Caminho_751" data-name="Caminho 751" d="M411.25,166.25h1.125v1.125H411.25Z" transform="translate(2957.311 3973.467)" fill="#5eba8d"/><path id="Caminho_752" data-name="Caminho 752" d="M381.312,271.25h-4.5a.563.563,0,0,0-.562.562v4.5a.562.562,0,0,0,.562.562h4.5a.562.562,0,0,0,.562-.562v-4.5a.562.562,0,0,0-.562-.562Zm-.562,4.5h-3.375v-3.375h3.375Z" transform="translate(2990.061 3875.217)" fill="#5eba8d"/><path id="Caminho_753" data-name="Caminho 753" d="M411.25,306.25h1.125v1.125H411.25Z" transform="translate(2957.311 3842.467)" fill="#5eba8d"/><path id="Caminho_754" data-name="Caminho 754" d="M236.25,323.75h2.25v1.125h-2.25Z" transform="translate(3121.062 3826.091)" fill="#5eba8d"/><path id="Caminho_755" data-name="Caminho 755" d="M288.75,323.75h3.375v1.125H288.75Z" transform="translate(3071.937 3826.091)" fill="#5eba8d"/><path id="Caminho_756" data-name="Caminho 756" d="M376.25,236.25h5.624v1.125H376.25Z" transform="translate(2990.061 3907.967)" fill="#5eba8d"/><path id="Caminho_757" data-name="Caminho 757" d="M276.312,236.25h-1.687v1.125h1.125v2.25h-4.5v1.125h5.062a.562.562,0,0,0,.562-.562v-3.375a.562.562,0,0,0-.562-.562Z" transform="translate(3088.312 3907.967)" fill="#5eba8d"/><path id="Caminho_758" data-name="Caminho 758" d="M341.25,192.5h1.125v1.125H341.25Z" transform="translate(3022.812 3948.905)" fill="#5eba8d"/><path id="Caminho_759" data-name="Caminho 759" d="M288.75,236.25h1.125v2.25H288.75Z" transform="translate(3071.937 3907.967)" fill="#5eba8d"/><path id="Caminho_760" data-name="Caminho 760" d="M341.25,140h1.125v1.125H341.25Z" transform="translate(3022.812 3998.03)" fill="#5eba8d"/><path id="Caminho_761" data-name="Caminho 761" d="M237.375,230.312H238.5v-1.125h-1.125V227.5H236.25V232h1.125Z" transform="translate(3121.062 3916.155)" fill="#5eba8d"/><path id="Caminho_762" data-name="Caminho 762" d="M271.5,411.25a2.008,2.008,0,0,0-1.524.727c-.276.276-.411.4-.731.4s-.45-.122-.727-.4a1.956,1.956,0,0,0-3.044,0c-.276.276-.411.4-.727.4s-.45-.122-.726-.4a2,2,0,0,0-1.519-.727v1.125c.315,0,.45.122.726.4a1.956,1.956,0,0,0,3.043,0c.276-.276.411-.4.726-.4s.45.122.727.4a1.959,1.959,0,0,0,3.046,0c.276-.276.412-.4.728-.4s.45.122.731.4a2.009,2.009,0,0,0,1.521.727v-1.125c-.317,0-.45-.122-.731-.4a2.01,2.01,0,0,0-1.521-.727Z" transform="translate(3096.498 3744.216)" fill="#5eba8d"/><path id="Caminho_763" data-name="Caminho 763" d="M271.5,472.5a2.008,2.008,0,0,0-1.524.727c-.276.276-.411.4-.731.4s-.45-.122-.727-.4a1.956,1.956,0,0,0-3.044,0c-.276.276-.411.4-.727.4s-.45-.122-.726-.4a2,2,0,0,0-1.519-.727v1.125c.315,0,.45.122.726.4a1.956,1.956,0,0,0,3.043,0c.276-.276.411-.4.726-.4s.45.122.727.4a1.959,1.959,0,0,0,3.046,0c.276-.276.412-.4.728-.4s.45.122.731.4a2.009,2.009,0,0,0,1.521.727v-1.125c-.317,0-.45-.122-.731-.4a2.01,2.01,0,0,0-1.521-.727Z" transform="translate(3096.498 3686.903)" fill="#5eba8d"/></g></g></svg>