<svg xmlns="http://www.w3.org/2000/svg" width="30.16" height="41.34" viewBox="0 0 30.16 41.34"><g id="icon_titulo" transform="translate(-4704.387 -2093)"><path id="Caminho_261" data-name="Caminho 261" d="M278.057,207.547c6.7,0,15.08-19.039,15.08-26.26a15.08,15.08,0,0,0-30.16,0c0,7.222,8.379,26.26,15.08,26.26Zm0-38.428a12.182,12.182,0,0,1,12.169,12.169c0,7.419-8.3,23.349-12.169,23.349s-12.169-15.93-12.169-23.349A12.182,12.182,0,0,1,278.057,169.119Z" transform="translate(4441.41 1926.793)" fill="#5eba8d"/><path id="Caminho_262" data-name="Caminho 262" d="M328.042,233.521a5.823,5.823,0,1,0-5.823,5.823A5.829,5.829,0,0,0,328.042,233.521Zm-8.734,0a2.911,2.911,0,1,1,2.911,2.911A2.915,2.915,0,0,1,319.308,233.521Z" transform="translate(4397.248 1875.958)" fill="#5eba8d"/></g></svg>